<svg id="Layer_1" data-name="Layer 1" xmlns="http://www.w3.org/2000/svg" viewBox="0 0 32 34.6"><defs><style>.cls-1{font-size:13px;font-family:BebasNeue-Regular, Bebas Neue;}</style></defs><text class="cls-1" transform="translate(6.4 32)">FM</text><path d="M5.33,10.67a5.34,5.34,0,1,1,5.34-5.34A5.34,5.34,0,0,1,5.33,10.67Zm13.54,1.58a8.14,8.14,0,0,0,2.67-.46v8.46a2.67,2.67,0,0,1-2.67,2.67H5.54a2.67,2.67,0,0,1-2.67-2.67V11.79a8.14,8.14,0,0,0,2.67.46A8,8,0,0,0,12.2,8.67,8,8,0,0,0,18.87,12.25Zm5.13.87v5.34l8,4V9.12ZM18.67,0A5.34,5.34,0,1,0,24,5.33,5.34,5.34,0,0,0,18.67,0Z"/></svg>